<?xml version='1.0' encoding='utf-8'?>
<mlt title="Anonymous Submission" version="6.5.0" root="/home/martin/Documents/ods stuff/ods/courseware/av" producer="main bin" LC_NUMERIC="en_CA.UTF-8">
 <profile width="1920" frame_rate_den="1" height="1080" display_aspect_num="16" display_aspect_den="9" frame_rate_num="30" colorspace="709" sample_aspect_den="1" description="HD 1080p 30 fps" progressive="1" sample_aspect_num="1"/>
 <producer id="31" title="Anonymous Submission" out="4975" in="0">
  <property name="length">00:02:45:26</property>
  <property name="eof">pause</property>
  <property name="resource">audio/sllist.flac</property>
  <property name="meta.media.nb_streams">1</property>
  <property name="meta.media.0.stream.type">audio</property>
  <property name="meta.media.0.codec.sample_fmt">s16</property>
  <property name="meta.media.0.codec.sample_rate">44100</property>
  <property name="meta.media.0.codec.channels">1</property>
  <property name="meta.media.0.codec.name">flac</property>
  <property name="meta.media.0.codec.long_name">FLAC (Free Lossless Audio Codec)</property>
  <property name="meta.media.0.codec.bit_rate">0</property>
  <property name="seekable">1</property>
  <property name="audio_index">0</property>
  <property name="video_index">-1</property>
  <property name="mute_on_pause">1</property>
  <property name="mlt_service">avformat-novalidate</property>
  <property name="kdenlive:folderid">-1</property>
  <property name="kdenlive:file_size">6056310</property>
  <property name="kdenlive:file_hash">aed47e63d9e73a77fc39a74cd7f9bd6e</property>
  <property name="global_feed">1</property>
 </producer>
 <producer id="34" out="149" in="0">
  <property name="length">150</property>
  <property name="eof">pause</property>
  <property name="resource">sllist-images/sllist-33.png</property>
  <property name="ttl">25</property>
  <property name="aspect_ratio">1</property>
  <property name="progressive">1</property>
  <property name="seekable">1</property>
  <property name="loop">1</property>
  <property name="meta.media.width">1921</property>
  <property name="meta.media.height">1080</property>
  <property name="mlt_service">pixbuf</property>
  <property name="kdenlive:folderid">-1</property>
  <property name="kdenlive:duration">150</property>
  <property name="kdenlive:file_size">39611</property>
  <property name="kdenlive:file_hash">d2cb6976e7e63b4e84407be2fecbc88c</property>
 </producer>
 <producer id="1" title="Anonymous Submission" out="446" in="0">
  <property name="length">447</property>
  <property name="eof">pause</property>
  <property name="resource">sllist-images/sllist-01.png</property>
  <property name="ttl">25</property>
  <property name="aspect_ratio">1</property>
  <property name="progressive">1</property>
  <property name="seekable">1</property>
  <property name="loop">1</property>
  <property name="meta.media.width">1921</property>
  <property name="meta.media.height">1080</property>
  <property name="mlt_service">pixbuf</property>
  <property name="kdenlive:folderid">-1</property>
  <property name="kdenlive:duration">150</property>
  <property name="kdenlive:file_size">43610</property>
  <property name="kdenlive:file_hash">214b41beec03371e24218ccd75dbb14b</property>
  <property name="global_feed">1</property>
 </producer>
 <producer id="2" title="Anonymous Submission" out="295" in="0">
  <property name="length">296</property>
  <property name="eof">pause</property>
  <property name="resource">sllist-images/sllist-02.png</property>
  <property name="ttl">25</property>
  <property name="aspect_ratio">1</property>
  <property name="progressive">1</property>
  <property name="seekable">1</property>
  <property name="loop">1</property>
  <property name="meta.media.width">1921</property>
  <property name="meta.media.height">1080</property>
  <property name="mlt_service">pixbuf</property>
  <property name="kdenlive:folderid">-1</property>
  <property name="kdenlive:duration">150</property>
  <property name="kdenlive:file_size">28057</property>
  <property name="kdenlive:file_hash">f98667a73b7c7c9896bb3cb4fe26ce8d</property>
  <property name="global_feed">1</property>
 </producer>
 <producer id="10" title="Anonymous Submission" out="192" in="0">
  <property name="length">193</property>
  <property name="eof">pause</property>
  <property name="resource">sllist-images/sllist-10.png</property>
  <property name="ttl">25</property>
  <property name="aspect_ratio">1</property>
  <property name="progressive">1</property>
  <property name="seekable">1</property>
  <property name="loop">1</property>
  <property name="meta.media.width">1921</property>
  <property name="meta.media.height">1080</property>
  <property name="mlt_service">pixbuf</property>
  <property name="kdenlive:folderid">-1</property>
  <property name="kdenlive:duration">150</property>
  <property name="kdenlive:file_size">54768</property>
  <property name="kdenlive:file_hash">c67815172c7c552e35445e88706f8f61</property>
  <property name="global_feed">1</property>
 </producer>
 <producer id="11" title="Anonymous Submission" out="149" in="0">
  <property name="length">150</property>
  <property name="eof">pause</property>
  <property name="resource">sllist-images/sllist-11.png</property>
  <property name="ttl">25</property>
  <property name="aspect_ratio">1</property>
  <property name="progressive">1</property>
  <property name="seekable">1</property>
  <property name="loop">1</property>
  <property name="meta.media.width">1921</property>
  <property name="meta.media.height">1080</property>
  <property name="mlt_service">pixbuf</property>
  <property name="kdenlive:folderid">-1</property>
  <property name="kdenlive:duration">150</property>
  <property name="kdenlive:file_size">54849</property>
  <property name="kdenlive:file_hash">c414554b75e9f07f11413ca1bd2a6344</property>
  <property name="global_feed">1</property>
 </producer>
 <producer id="12" title="Anonymous Submission" out="149" in="0">
  <property name="length">150</property>
  <property name="eof">pause</property>
  <property name="resource">sllist-images/sllist-12.png</property>
  <property name="ttl">25</property>
  <property name="aspect_ratio">1</property>
  <property name="progressive">1</property>
  <property name="seekable">1</property>
  <property name="loop">1</property>
  <property name="meta.media.width">1921</property>
  <property name="meta.media.height">1080</property>
  <property name="mlt_service">pixbuf</property>
  <property name="kdenlive:folderid">-1</property>
  <property name="kdenlive:duration">150</property>
  <property name="kdenlive:file_size">48871</property>
  <property name="kdenlive:file_hash">df2ec32d0d8aeda85fc6a4755e7ba448</property>
  <property name="global_feed">1</property>
 </producer>
 <producer id="13" title="Anonymous Submission" out="153" in="0">
  <property name="length">154</property>
  <property name="eof">pause</property>
  <property name="resource">sllist-images/sllist-13.png</property>
  <property name="ttl">25</property>
  <property name="aspect_ratio">1</property>
  <property name="progressive">1</property>
  <property name="seekable">1</property>
  <property name="loop">1</property>
  <property name="meta.media.width">1921</property>
  <property name="meta.media.height">1080</property>
  <property name="mlt_service">pixbuf</property>
  <property name="kdenlive:folderid">-1</property>
  <property name="kdenlive:duration">150</property>
  <property name="kdenlive:file_size">54187</property>
  <property name="kdenlive:file_hash">2f15a43f44511c2ad26120c28f105b72</property>
  <property name="global_feed">1</property>
 </producer>
 <producer id="14" title="Anonymous Submission" out="161" in="0">
  <property name="length">162</property>
  <property name="eof">pause</property>
  <property name="resource">sllist-images/sllist-14.png</property>
  <property name="ttl">25</property>
  <property name="aspect_ratio">1</property>
  <property name="progressive">1</property>
  <property name="seekable">1</property>
  <property name="loop">1</property>
  <property name="meta.media.width">1921</property>
  <property name="meta.media.height">1080</property>
  <property name="mlt_service">pixbuf</property>
  <property name="kdenlive:folderid">-1</property>
  <property name="kdenlive:duration">150</property>
  <property name="kdenlive:file_size">55598</property>
  <property name="kdenlive:file_hash">011c87f8f30ba312206d95d25e9eeb9e</property>
  <property name="global_feed">1</property>
 </producer>
 <producer id="15" title="Anonymous Submission" out="183" in="0">
  <property name="length">184</property>
  <property name="eof">pause</property>
  <property name="resource">sllist-images/sllist-15.png</property>
  <property name="ttl">25</property>
  <property name="aspect_ratio">1</property>
  <property name="progressive">1</property>
  <property name="seekable">1</property>
  <property name="loop">1</property>
  <property name="meta.media.width">1921</property>
  <property name="meta.media.height">1080</property>
  <property name="mlt_service">pixbuf</property>
  <property name="kdenlive:folderid">-1</property>
  <property name="kdenlive:duration">150</property>
  <property name="kdenlive:file_size">58162</property>
  <property name="kdenlive:file_hash">1a0d1ba0169af484c78a809509b2c59f</property>
  <property name="global_feed">1</property>
 </producer>
 <producer id="16" title="Anonymous Submission" out="274" in="0">
  <property name="length">275</property>
  <property name="eof">pause</property>
  <property name="resource">sllist-images/sllist-16.png</property>
  <property name="ttl">25</property>
  <property name="aspect_ratio">1</property>
  <property name="progressive">1</property>
  <property name="seekable">1</property>
  <property name="loop">1</property>
  <property name="meta.media.width">1921</property>
  <property name="meta.media.height">1080</property>
  <property name="mlt_service">pixbuf</property>
  <property name="kdenlive:folderid">-1</property>
  <property name="kdenlive:duration">150</property>
  <property name="kdenlive:file_size">57993</property>
  <property name="kdenlive:file_hash">cc23ba5975b2e333261d4ffdd6b8b426</property>
  <property name="global_feed">1</property>
 </producer>
 <producer id="17" title="Anonymous Submission" out="219" in="0">
  <property name="length">220</property>
  <property name="eof">pause</property>
  <property name="resource">sllist-images/sllist-17.png</property>
  <property name="ttl">25</property>
  <property name="aspect_ratio">1</property>
  <property name="progressive">1</property>
  <property name="seekable">1</property>
  <property name="loop">1</property>
  <property name="meta.media.width">1921</property>
  <property name="meta.media.height">1080</property>
  <property name="mlt_service">pixbuf</property>
  <property name="kdenlive:folderid">-1</property>
  <property name="kdenlive:duration">150</property>
  <property name="kdenlive:file_size">55313</property>
  <property name="kdenlive:file_hash">7de51eb01b39f9d7ad15c8d18fd36a78</property>
  <property name="global_feed">1</property>
 </producer>
 <producer id="18" title="Anonymous Submission" out="149" in="0">
  <property name="length">150</property>
  <property name="eof">pause</property>
  <property name="resource">sllist-images/sllist-18.png</property>
  <property name="ttl">25</property>
  <property name="aspect_ratio">1</property>
  <property name="progressive">1</property>
  <property name="seekable">1</property>
  <property name="loop">1</property>
  <property name="meta.media.width">1921</property>
  <property name="meta.media.height">1080</property>
  <property name="mlt_service">pixbuf</property>
  <property name="kdenlive:folderid">-1</property>
  <property name="kdenlive:duration">150</property>
  <property name="kdenlive:file_size">49477</property>
  <property name="kdenlive:file_hash">8a07759f45843f6b6d30874cdc9f792a</property>
  <property name="global_feed">1</property>
 </producer>
 <producer id="19" title="Anonymous Submission" out="207" in="0">
  <property name="length">208</property>
  <property name="eof">pause</property>
  <property name="resource">sllist-images/sllist-19.png</property>
  <property name="ttl">25</property>
  <property name="aspect_ratio">1</property>
  <property name="progressive">1</property>
  <property name="seekable">1</property>
  <property name="loop">1</property>
  <property name="meta.media.width">1921</property>
  <property name="meta.media.height">1080</property>
  <property name="mlt_service">pixbuf</property>
  <property name="kdenlive:folderid">-1</property>
  <property name="kdenlive:duration">150</property>
  <property name="kdenlive:file_size">54622</property>
  <property name="kdenlive:file_hash">0415ac0f236f3fe72644ddd2aad7eb04</property>
  <property name="global_feed">1</property>
 </producer>
 <producer id="20" title="Anonymous Submission" out="180" in="0">
  <property name="length">181</property>
  <property name="eof">pause</property>
  <property name="resource">sllist-images/sllist-20.png</property>
  <property name="ttl">25</property>
  <property name="aspect_ratio">1</property>
  <property name="progressive">1</property>
  <property name="seekable">1</property>
  <property name="loop">1</property>
  <property name="meta.media.width">1921</property>
  <property name="meta.media.height">1080</property>
  <property name="mlt_service">pixbuf</property>
  <property name="kdenlive:folderid">-1</property>
  <property name="kdenlive:duration">150</property>
  <property name="kdenlive:file_size">55348</property>
  <property name="kdenlive:file_hash">d4f06c488385ebdfc176b296ebbdf555</property>
  <property name="global_feed">1</property>
 </producer>
 <producer id="21" title="Anonymous Submission" out="149" in="0">
  <property name="length">150</property>
  <property name="eof">pause</property>
  <property name="resource">sllist-images/sllist-21.png</property>
  <property name="ttl">25</property>
  <property name="aspect_ratio">1</property>
  <property name="progressive">1</property>
  <property name="seekable">1</property>
  <property name="loop">1</property>
  <property name="meta.media.width">1921</property>
  <property name="meta.media.height">1080</property>
  <property name="mlt_service">pixbuf</property>
  <property name="kdenlive:folderid">-1</property>
  <property name="kdenlive:duration">150</property>
  <property name="kdenlive:file_size">53968</property>
  <property name="kdenlive:file_hash">26870af3322689f66a9f03f1bf48af37</property>
  <property name="global_feed">1</property>
 </producer>
 <producer id="22" title="Anonymous Submission" out="149" in="0">
  <property name="length">150</property>
  <property name="eof">pause</property>
  <property name="resource">sllist-images/sllist-22.png</property>
  <property name="ttl">25</property>
  <property name="aspect_ratio">1</property>
  <property name="progressive">1</property>
  <property name="seekable">1</property>
  <property name="loop">1</property>
  <property name="meta.media.width">1921</property>
  <property name="meta.media.height">1080</property>
  <property name="mlt_service">pixbuf</property>
  <property name="kdenlive:folderid">-1</property>
  <property name="kdenlive:duration">150</property>
  <property name="kdenlive:file_size">53720</property>
  <property name="kdenlive:file_hash">1dfd6978315b9e015086d7d689a91b00</property>
  <property name="global_feed">1</property>
 </producer>
 <producer id="23" title="Anonymous Submission" out="250" in="0">
  <property name="length">251</property>
  <property name="eof">pause</property>
  <property name="resource">sllist-images/sllist-23.png</property>
  <property name="ttl">25</property>
  <property name="aspect_ratio">1</property>
  <property name="progressive">1</property>
  <property name="seekable">1</property>
  <property name="loop">1</property>
  <property name="meta.media.width">1921</property>
  <property name="meta.media.height">1080</property>
  <property name="mlt_service">pixbuf</property>
  <property name="kdenlive:folderid">-1</property>
  <property name="kdenlive:duration">150</property>
  <property name="kdenlive:file_size">46468</property>
  <property name="kdenlive:file_hash">edd88a5c83bf8c9151f740678eb7119b</property>
  <property name="global_feed">1</property>
 </producer>
 <producer id="24" title="Anonymous Submission" out="291" in="0">
  <property name="length">292</property>
  <property name="eof">pause</property>
  <property name="resource">sllist-images/sllist-24.png</property>
  <property name="ttl">25</property>
  <property name="aspect_ratio">1</property>
  <property name="progressive">1</property>
  <property name="seekable">1</property>
  <property name="loop">1</property>
  <property name="meta.media.width">1921</property>
  <property name="meta.media.height">1080</property>
  <property name="mlt_service">pixbuf</property>
  <property name="kdenlive:folderid">-1</property>
  <property name="kdenlive:duration">150</property>
  <property name="kdenlive:file_size">66919</property>
  <property name="kdenlive:file_hash">d8d9418e0ba5d75ca3662076082f8155</property>
  <property name="global_feed">1</property>
 </producer>
 <producer id="25" title="Anonymous Submission" out="149" in="0">
  <property name="length">150</property>
  <property name="eof">pause</property>
  <property name="resource">sllist-images/sllist-25.png</property>
  <property name="ttl">25</property>
  <property name="aspect_ratio">1</property>
  <property name="progressive">1</property>
  <property name="seekable">1</property>
  <property name="loop">1</property>
  <property name="meta.media.width">1921</property>
  <property name="meta.media.height">1080</property>
  <property name="mlt_service">pixbuf</property>
  <property name="kdenlive:folderid">-1</property>
  <property name="kdenlive:duration">150</property>
  <property name="kdenlive:file_size">46468</property>
  <property name="kdenlive:file_hash">edd88a5c83bf8c9151f740678eb7119b</property>
  <property name="global_feed">1</property>
 </producer>
 <producer id="26" title="Anonymous Submission" out="263" in="0">
  <property name="length">264</property>
  <property name="eof">pause</property>
  <property name="resource">sllist-images/sllist-26.png</property>
  <property name="ttl">25</property>
  <property name="aspect_ratio">1</property>
  <property name="progressive">1</property>
  <property name="seekable">1</property>
  <property name="loop">1</property>
  <property name="meta.media.width">1921</property>
  <property name="meta.media.height">1080</property>
  <property name="mlt_service">pixbuf</property>
  <property name="kdenlive:folderid">-1</property>
  <property name="kdenlive:duration">150</property>
  <property name="kdenlive:file_size">64136</property>
  <property name="kdenlive:file_hash">e7afe66fac752e3530d92ea474f802f3</property>
  <property name="global_feed">1</property>
 </producer>
 <producer id="27" title="Anonymous Submission" out="357" in="0">
  <property name="length">358</property>
  <property name="eof">pause</property>
  <property name="resource">sllist-images/sllist-27.png</property>
  <property name="ttl">25</property>
  <property name="aspect_ratio">1</property>
  <property name="progressive">1</property>
  <property name="seekable">1</property>
  <property name="loop">1</property>
  <property name="meta.media.width">1921</property>
  <property name="meta.media.height">1080</property>
  <property name="mlt_service">pixbuf</property>
  <property name="kdenlive:folderid">-1</property>
  <property name="kdenlive:duration">150</property>
  <property name="kdenlive:file_size">46468</property>
  <property name="kdenlive:file_hash">edd88a5c83bf8c9151f740678eb7119b</property>
  <property name="global_feed">1</property>
 </producer>
 <producer id="28" title="Anonymous Submission" out="223" in="0">
  <property name="length">224</property>
  <property name="eof">pause</property>
  <property name="resource">sllist-images/sllist-28.png</property>
  <property name="ttl">25</property>
  <property name="aspect_ratio">1</property>
  <property name="progressive">1</property>
  <property name="seekable">1</property>
  <property name="loop">1</property>
  <property name="meta.media.width">1921</property>
  <property name="meta.media.height">1080</property>
  <property name="mlt_service">pixbuf</property>
  <property name="kdenlive:folderid">-1</property>
  <property name="kdenlive:duration">150</property>
  <property name="kdenlive:file_size">35873</property>
  <property name="kdenlive:file_hash">212cc0fcd67358d8bef8bb55560a110e</property>
  <property name="global_feed">1</property>
 </producer>
 <producer id="29" title="Anonymous Submission" out="209" in="0">
  <property name="length">210</property>
  <property name="eof">pause</property>
  <property name="resource">sllist-images/sllist-29.png</property>
  <property name="ttl">25</property>
  <property name="aspect_ratio">1</property>
  <property name="progressive">1</property>
  <property name="seekable">1</property>
  <property name="loop">1</property>
  <property name="meta.media.width">1921</property>
  <property name="meta.media.height">1080</property>
  <property name="mlt_service">pixbuf</property>
  <property name="kdenlive:folderid">-1</property>
  <property name="kdenlive:duration">150</property>
  <property name="kdenlive:file_size">40725</property>
  <property name="kdenlive:file_hash">e5b19110497a7e17da961b93f6ee3fd3</property>
  <property name="global_feed">1</property>
 </producer>
 <producer id="3" title="Anonymous Submission" out="315" in="0">
  <property name="length">316</property>
  <property name="eof">pause</property>
  <property name="resource">sllist-images/sllist-03.png</property>
  <property name="ttl">25</property>
  <property name="aspect_ratio">1</property>
  <property name="progressive">1</property>
  <property name="seekable">1</property>
  <property name="loop">1</property>
  <property name="meta.media.width">1921</property>
  <property name="meta.media.height">1080</property>
  <property name="mlt_service">pixbuf</property>
  <property name="kdenlive:folderid">-1</property>
  <property name="kdenlive:duration">150</property>
  <property name="kdenlive:file_size">29852</property>
  <property name="kdenlive:file_hash">580a8406758f52a4788fbfb847d570de</property>
  <property name="global_feed">1</property>
 </producer>
 <producer id="30" title="Anonymous Submission" out="149" in="0">
  <property name="length">150</property>
  <property name="eof">pause</property>
  <property name="resource">sllist-images/sllist-30.png</property>
  <property name="ttl">25</property>
  <property name="aspect_ratio">1</property>
  <property name="progressive">1</property>
  <property name="seekable">1</property>
  <property name="loop">1</property>
  <property name="meta.media.width">1921</property>
  <property name="meta.media.height">1080</property>
  <property name="mlt_service">pixbuf</property>
  <property name="kdenlive:folderid">-1</property>
  <property name="kdenlive:duration">150</property>
  <property name="kdenlive:file_size">42680</property>
  <property name="kdenlive:file_hash">0845d506581a95e11750d5b7c85abd59</property>
  <property name="global_feed">1</property>
 </producer>
 <producer id="32" title="Anonymous Submission" out="149" in="0">
  <property name="length">150</property>
  <property name="eof">pause</property>
  <property name="resource">sllist-images/sllist-31.png</property>
  <property name="ttl">25</property>
  <property name="aspect_ratio">1</property>
  <property name="progressive">1</property>
  <property name="seekable">1</property>
  <property name="loop">1</property>
  <property name="meta.media.width">1921</property>
  <property name="meta.media.height">1080</property>
  <property name="mlt_service">pixbuf</property>
  <property name="kdenlive:folderid">-1</property>
  <property name="kdenlive:duration">150</property>
  <property name="kdenlive:file_size">43020</property>
  <property name="kdenlive:file_hash">874e5d3b6e32196ab054902c1d98de08</property>
  <property name="global_feed">1</property>
 </producer>
 <producer id="33" title="Anonymous Submission" out="149" in="0">
  <property name="length">150</property>
  <property name="eof">pause</property>
  <property name="resource">sllist-images/sllist-32.png</property>
  <property name="ttl">25</property>
  <property name="aspect_ratio">1</property>
  <property name="progressive">1</property>
  <property name="seekable">1</property>
  <property name="loop">1</property>
  <property name="meta.media.width">1921</property>
  <property name="meta.media.height">1080</property>
  <property name="mlt_service">pixbuf</property>
  <property name="kdenlive:folderid">-1</property>
  <property name="kdenlive:duration">150</property>
  <property name="kdenlive:file_size">44161</property>
  <property name="kdenlive:file_hash">29964a14729800bea26ed11998e4f038</property>
  <property name="global_feed">1</property>
 </producer>
 <producer id="35" title="Anonymous Submission" out="220" in="0">
  <property name="length">221</property>
  <property name="eof">pause</property>
  <property name="resource">sllist-images/sllist-34.png</property>
  <property name="ttl">25</property>
  <property name="aspect_ratio">1</property>
  <property name="progressive">1</property>
  <property name="seekable">1</property>
  <property name="loop">1</property>
  <property name="meta.media.width">1921</property>
  <property name="meta.media.height">1080</property>
  <property name="mlt_service">pixbuf</property>
  <property name="kdenlive:folderid">-1</property>
  <property name="kdenlive:duration">150</property>
  <property name="kdenlive:file_size">44993</property>
  <property name="kdenlive:file_hash">0bd3894a75c9b92cf532c9d45367e2ce</property>
  <property name="global_feed">1</property>
 </producer>
 <producer id="36" title="Anonymous Submission" out="149" in="0">
  <property name="length">150</property>
  <property name="eof">pause</property>
  <property name="resource">sllist-images/sllist-35.png</property>
  <property name="ttl">25</property>
  <property name="aspect_ratio">1</property>
  <property name="progressive">1</property>
  <property name="seekable">1</property>
  <property name="loop">1</property>
  <property name="meta.media.width">1921</property>
  <property name="meta.media.height">1080</property>
  <property name="mlt_service">pixbuf</property>
  <property name="kdenlive:folderid">-1</property>
  <property name="kdenlive:duration">150</property>
  <property name="kdenlive:file_size">44690</property>
  <property name="kdenlive:file_hash">2080ea6ec2775ddc854b1793fdc6ebbc</property>
  <property name="global_feed">1</property>
 </producer>
 <producer id="37" title="Anonymous Submission" out="149" in="0">
  <property name="length">150</property>
  <property name="eof">pause</property>
  <property name="resource">sllist-images/sllist-36.png</property>
  <property name="ttl">25</property>
  <property name="aspect_ratio">1</property>
  <property name="progressive">1</property>
  <property name="seekable">1</property>
  <property name="loop">1</property>
  <property name="meta.media.width">1921</property>
  <property name="meta.media.height">1080</property>
  <property name="mlt_service">pixbuf</property>
  <property name="kdenlive:folderid">-1</property>
  <property name="kdenlive:duration">150</property>
  <property name="kdenlive:file_size">43566</property>
  <property name="kdenlive:file_hash">1ceb0cb65962cc3be542791839943400</property>
  <property name="global_feed">1</property>
 </producer>
 <producer id="38" title="Anonymous Submission" out="149" in="0">
  <property name="length">150</property>
  <property name="eof">pause</property>
  <property name="resource">sllist-images/sllist-37.png</property>
  <property name="ttl">25</property>
  <property name="aspect_ratio">1</property>
  <property name="progressive">1</property>
  <property name="seekable">1</property>
  <property name="loop">1</property>
  <property name="meta.media.width">1921</property>
  <property name="meta.media.height">1080</property>
  <property name="mlt_service">pixbuf</property>
  <property name="kdenlive:folderid">-1</property>
  <property name="kdenlive:duration">150</property>
  <property name="kdenlive:file_size">43310</property>
  <property name="kdenlive:file_hash">5830148a28d70538ae4d9eba8041ee07</property>
  <property name="global_feed">1</property>
 </producer>
 <producer id="39" title="Anonymous Submission" out="149" in="0">
  <property name="length">150</property>
  <property name="eof">pause</property>
  <property name="resource">sllist-images/sllist-38.png</property>
  <property name="ttl">25</property>
  <property name="aspect_ratio">1</property>
  <property name="progressive">1</property>
  <property name="seekable">1</property>
  <property name="loop">1</property>
  <property name="meta.media.width">1921</property>
  <property name="meta.media.height">1080</property>
  <property name="mlt_service">pixbuf</property>
  <property name="kdenlive:folderid">-1</property>
  <property name="kdenlive:duration">150</property>
  <property name="kdenlive:file_size">41674</property>
  <property name="kdenlive:file_hash">4aa05ba163a413acb05f51acd6125bb0</property>
  <property name="global_feed">1</property>
 </producer>
 <producer id="4" title="Anonymous Submission" out="438" in="0">
  <property name="length">439</property>
  <property name="eof">pause</property>
  <property name="resource">sllist-images/sllist-04.png</property>
  <property name="ttl">25</property>
  <property name="aspect_ratio">1</property>
  <property name="progressive">1</property>
  <property name="seekable">1</property>
  <property name="loop">1</property>
  <property name="meta.media.width">1921</property>
  <property name="meta.media.height">1080</property>
  <property name="mlt_service">pixbuf</property>
  <property name="kdenlive:folderid">-1</property>
  <property name="kdenlive:duration">150</property>
  <property name="kdenlive:file_size">33089</property>
  <property name="kdenlive:file_hash">3caf9c2cb2324fe3cd13a4767a7a6f2c</property>
  <property name="global_feed">1</property>
 </producer>
 <producer id="40" title="Anonymous Submission" out="149" in="0">
  <property name="length">150</property>
  <property name="eof">pause</property>
  <property name="resource">sllist-images/sllist-39.png</property>
  <property name="ttl">25</property>
  <property name="aspect_ratio">1</property>
  <property name="progressive">1</property>
  <property name="seekable">1</property>
  <property name="loop">1</property>
  <property name="meta.media.width">1921</property>
  <property name="meta.media.height">1080</property>
  <property name="mlt_service">pixbuf</property>
  <property name="kdenlive:folderid">-1</property>
  <property name="kdenlive:duration">150</property>
  <property name="kdenlive:file_size">35873</property>
  <property name="kdenlive:file_hash">212cc0fcd67358d8bef8bb55560a110e</property>
  <property name="global_feed">1</property>
 </producer>
 <producer id="41" title="Anonymous Submission" out="171" in="0">
  <property name="length">172</property>
  <property name="eof">pause</property>
  <property name="resource">sllist-images/sllist-40.png</property>
  <property name="ttl">25</property>
  <property name="aspect_ratio">1</property>
  <property name="progressive">1</property>
  <property name="seekable">1</property>
  <property name="loop">1</property>
  <property name="meta.media.width">1921</property>
  <property name="meta.media.height">1080</property>
  <property name="mlt_service">pixbuf</property>
  <property name="kdenlive:folderid">-1</property>
  <property name="kdenlive:duration">150</property>
  <property name="kdenlive:file_size">51306</property>
  <property name="kdenlive:file_hash">7b6f489472231f515a5cb7002361ffbb</property>
  <property name="global_feed">1</property>
 </producer>
 <producer id="42" title="Anonymous Submission" out="149" in="0">
  <property name="length">150</property>
  <property name="eof">pause</property>
  <property name="resource">sllist-images/sllist-41.png</property>
  <property name="ttl">25</property>
  <property name="aspect_ratio">1</property>
  <property name="progressive">1</property>
  <property name="seekable">1</property>
  <property name="loop">1</property>
  <property name="meta.media.width">1921</property>
  <property name="meta.media.height">1080</property>
  <property name="mlt_service">pixbuf</property>
  <property name="kdenlive:folderid">-1</property>
  <property name="kdenlive:duration">150</property>
  <property name="kdenlive:file_size">70039</property>
  <property name="kdenlive:file_hash">ec7ecf629ae1d631b13fe0aeae500907</property>
  <property name="global_feed">1</property>
 </producer>
 <producer id="43" title="Anonymous Submission" out="149" in="0">
  <property name="length">150</property>
  <property name="eof">pause</property>
  <property name="resource">sllist-images/sllist-42.png</property>
  <property name="ttl">25</property>
  <property name="aspect_ratio">1</property>
  <property name="progressive">1</property>
  <property name="seekable">1</property>
  <property name="loop">1</property>
  <property name="meta.media.width">1921</property>
  <property name="meta.media.height">1080</property>
  <property name="mlt_service">pixbuf</property>
  <property name="kdenlive:folderid">-1</property>
  <property name="kdenlive:duration">150</property>
  <property name="kdenlive:file_size">88704</property>
  <property name="kdenlive:file_hash">6effa8076b638d0fdc92e9e369a98087</property>
  <property name="global_feed">1</property>
 </producer>
 <producer id="44" title="Anonymous Submission" out="149" in="0">
  <property name="length">150</property>
  <property name="eof">pause</property>
  <property name="resource">sllist-images/sllist-43.png</property>
  <property name="ttl">25</property>
  <property name="aspect_ratio">1</property>
  <property name="progressive">1</property>
  <property name="seekable">1</property>
  <property name="loop">1</property>
  <property name="meta.media.width">1921</property>
  <property name="meta.media.height">1080</property>
  <property name="mlt_service">pixbuf</property>
  <property name="kdenlive:folderid">-1</property>
  <property name="kdenlive:duration">150</property>
  <property name="kdenlive:file_size">24836</property>
  <property name="kdenlive:file_hash">59bc619852d66f273019ca11f2536f7c</property>
  <property name="global_feed">1</property>
 </producer>
 <producer id="5" title="Anonymous Submission" out="437" in="0">
  <property name="length">438</property>
  <property name="eof">pause</property>
  <property name="resource">sllist-images/sllist-05.png</property>
  <property name="ttl">25</property>
  <property name="aspect_ratio">1</property>
  <property name="progressive">1</property>
  <property name="seekable">1</property>
  <property name="loop">1</property>
  <property name="meta.media.width">1921</property>
  <property name="meta.media.height">1080</property>
  <property name="mlt_service">pixbuf</property>
  <property name="kdenlive:folderid">-1</property>
  <property name="kdenlive:duration">150</property>
  <property name="kdenlive:file_size">36409</property>
  <property name="kdenlive:file_hash">e36190bc2acb44eda54a6f827ff49d37</property>
  <property name="global_feed">1</property>
 </producer>
 <producer id="6" title="Anonymous Submission" out="447" in="0">
  <property name="length">448</property>
  <property name="eof">pause</property>
  <property name="resource">sllist-images/sllist-06.png</property>
  <property name="ttl">25</property>
  <property name="aspect_ratio">1</property>
  <property name="progressive">1</property>
  <property name="seekable">1</property>
  <property name="loop">1</property>
  <property name="meta.media.width">1921</property>
  <property name="meta.media.height">1080</property>
  <property name="mlt_service">pixbuf</property>
  <property name="kdenlive:folderid">-1</property>
  <property name="kdenlive:duration">150</property>
  <property name="kdenlive:file_size">46059</property>
  <property name="kdenlive:file_hash">e0194e71b0f0990e5cd2288c78acdfd1</property>
  <property name="global_feed">1</property>
 </producer>
 <producer id="7" title="Anonymous Submission" out="368" in="0">
  <property name="length">369</property>
  <property name="eof">pause</property>
  <property name="resource">sllist-images/sllist-07.png</property>
  <property name="ttl">25</property>
  <property name="aspect_ratio">1</property>
  <property name="progressive">1</property>
  <property name="seekable">1</property>
  <property name="loop">1</property>
  <property name="meta.media.width">1921</property>
  <property name="meta.media.height">1080</property>
  <property name="mlt_service">pixbuf</property>
  <property name="kdenlive:folderid">-1</property>
  <property name="kdenlive:duration">150</property>
  <property name="kdenlive:file_size">51576</property>
  <property name="kdenlive:file_hash">e4158b9c923c2ef9edcf29a1cc8a6f96</property>
  <property name="global_feed">1</property>
 </producer>
 <producer id="8" title="Anonymous Submission" out="192" in="0">
  <property name="length">193</property>
  <property name="eof">pause</property>
  <property name="resource">sllist-images/sllist-08.png</property>
  <property name="ttl">25</property>
  <property name="aspect_ratio">1</property>
  <property name="progressive">1</property>
  <property name="seekable">1</property>
  <property name="loop">1</property>
  <property name="meta.media.width">1921</property>
  <property name="meta.media.height">1080</property>
  <property name="mlt_service">pixbuf</property>
  <property name="kdenlive:folderid">-1</property>
  <property name="kdenlive:duration">150</property>
  <property name="kdenlive:file_size">53560</property>
  <property name="kdenlive:file_hash">508b5ba78e867b8423032821bd9c660e</property>
  <property name="global_feed">1</property>
 </producer>
 <producer id="9" title="Anonymous Submission" out="272" in="0">
  <property name="length">273</property>
  <property name="eof">pause</property>
  <property name="resource">sllist-images/sllist-09.png</property>
  <property name="ttl">25</property>
  <property name="aspect_ratio">1</property>
  <property name="progressive">1</property>
  <property name="seekable">1</property>
  <property name="loop">1</property>
  <property name="meta.media.width">1921</property>
  <property name="meta.media.height">1080</property>
  <property name="mlt_service">pixbuf</property>
  <property name="kdenlive:folderid">-1</property>
  <property name="kdenlive:duration">150</property>
  <property name="kdenlive:file_size">54317</property>
  <property name="kdenlive:file_hash">ac7880ee2497426d2b608ce33f102e89</property>
  <property name="global_feed">1</property>
 </producer>
 <playlist id="main bin">
  <property name="kdenlive:docproperties.audiotargettrack">1</property>
  <property name="kdenlive:docproperties.decimalPoint">.</property>
  <property name="kdenlive:docproperties.dirtypreviewchunks"/>
  <property name="kdenlive:docproperties.disablepreview">0</property>
  <property name="kdenlive:docproperties.documentid">1493901552099</property>
  <property name="kdenlive:docproperties.enableproxy">0</property>
  <property name="kdenlive:docproperties.generateimageproxy">0</property>
  <property name="kdenlive:docproperties.generateproxy">0</property>
  <property name="kdenlive:docproperties.kdenliveversion">17.04.0</property>
  <property name="kdenlive:docproperties.position">4976</property>
  <property name="kdenlive:docproperties.previewchunks"/>
  <property name="kdenlive:docproperties.previewextension"/>
  <property name="kdenlive:docproperties.previewparameters"/>
  <property name="kdenlive:docproperties.profile">atsc_1080p_30</property>
  <property name="kdenlive:docproperties.proxyextension">mpg</property>
  <property name="kdenlive:docproperties.proxyimageminsize">2000</property>
  <property name="kdenlive:docproperties.proxyminsize">1000</property>
  <property name="kdenlive:docproperties.proxyparams">-vf scale=640:-1 -g 5 -qscale 6 -ab 128k -vcodec mpeg2video -acodec mp2</property>
  <property name="kdenlive:docproperties.version">0.95</property>
  <property name="kdenlive:docproperties.verticalzoom">1</property>
  <property name="kdenlive:docproperties.videotargettrack">2</property>
  <property name="kdenlive:docproperties.zonein">4976</property>
  <property name="kdenlive:docproperties.zoneout">4976</property>
  <property name="kdenlive:docproperties.zoom">6</property>
  <property name="kdenlive:documentnotes"/>
  <property name="kdenlive:clipgroups"/>
  <property name="xml_retain">1</property>
  <entry out="4975" producer="31" in="0"/>
  <entry out="149" producer="34" in="0"/>
  <entry out="446" producer="1" in="0"/>
  <entry out="295" producer="2" in="0"/>
  <entry out="192" producer="10" in="0"/>
  <entry out="149" producer="11" in="0"/>
  <entry out="149" producer="12" in="0"/>
  <entry out="153" producer="13" in="0"/>
  <entry out="161" producer="14" in="0"/>
  <entry out="183" producer="15" in="0"/>
  <entry out="274" producer="16" in="0"/>
  <entry out="219" producer="17" in="0"/>
  <entry out="149" producer="18" in="0"/>
  <entry out="207" producer="19" in="0"/>
  <entry out="180" producer="20" in="0"/>
  <entry out="149" producer="21" in="0"/>
  <entry out="149" producer="22" in="0"/>
  <entry out="250" producer="23" in="0"/>
  <entry out="291" producer="24" in="0"/>
  <entry out="149" producer="25" in="0"/>
  <entry out="263" producer="26" in="0"/>
  <entry out="357" producer="27" in="0"/>
  <entry out="223" producer="28" in="0"/>
  <entry out="209" producer="29" in="0"/>
  <entry out="315" producer="3" in="0"/>
  <entry out="149" producer="30" in="0"/>
  <entry out="149" producer="32" in="0"/>
  <entry out="149" producer="33" in="0"/>
  <entry out="149" producer="35" in="0"/>
  <entry out="149" producer="36" in="0"/>
  <entry out="149" producer="37" in="0"/>
  <entry out="149" producer="38" in="0"/>
  <entry out="149" producer="39" in="0"/>
  <entry out="438" producer="4" in="0"/>
  <entry out="149" producer="40" in="0"/>
  <entry out="149" producer="41" in="0"/>
  <entry out="149" producer="42" in="0"/>
  <entry out="149" producer="43" in="0"/>
  <entry out="149" producer="44" in="0"/>
  <entry out="437" producer="5" in="0"/>
  <entry out="447" producer="6" in="0"/>
  <entry out="368" producer="7" in="0"/>
  <entry out="192" producer="8" in="0"/>
  <entry out="272" producer="9" in="0"/>
 </playlist>
 <producer id="black" out="500" in="0">
  <property name="length">15000</property>
  <property name="eof">pause</property>
  <property name="resource">black</property>
  <property name="aspect_ratio">0</property>
  <property name="mlt_service">colour</property>
  <property name="set.test_audio">0</property>
 </producer>
 <playlist id="black_track">
  <entry out="4976" producer="black" in="0"/>
 </playlist>
 <producer id="31_playlist1" title="Anonymous Submission" out="4975" in="0">
  <property name="length">00:02:45:26</property>
  <property name="eof">pause</property>
  <property name="resource">audio/sllist.flac</property>
  <property name="audio_index">0</property>
  <property name="video_index">-1</property>
  <property name="mute_on_pause">1</property>
  <property name="mlt_service">avformat-novalidate</property>
  <property name="seekable">1</property>
  <property name="kdenlive:folderid">-1</property>
  <property name="kdenlive:file_size">6056310</property>
  <property name="kdenlive:file_hash">aed47e63d9e73a77fc39a74cd7f9bd6e</property>
  <property name="global_feed">1</property>
  <property name="xml">was here</property>
  <property name="meta.media.nb_streams">1</property>
  <property name="meta.media.0.stream.type">audio</property>
  <property name="meta.media.0.codec.sample_fmt">s16</property>
  <property name="meta.media.0.codec.sample_rate">44100</property>
  <property name="meta.media.0.codec.channels">1</property>
  <property name="meta.media.0.codec.name">flac</property>
  <property name="meta.media.0.codec.long_name">FLAC (Free Lossless Audio Codec)</property>
  <property name="meta.media.0.codec.bit_rate">0</property>
 </producer>
 <playlist id="playlist1">
  <property name="kdenlive:track_name">Audio 1</property>
  <property name="kdenlive:audio_track">1</property>
  <entry out="4975" producer="31_playlist1" in="0"/>
 </playlist>
 <playlist id="playlist2">
  <property name="kdenlive:track_name">Video 1</property>
  <entry out="136" producer="1" in="0"/>
  <entry out="189" producer="2" in="9"/>
  <entry out="125" producer="3" in="0"/>
  <entry out="220" producer="4" in="14"/>
  <entry out="215" producer="5" in="8"/>
  <entry out="204" producer="6" in="0"/>
  <entry out="123" producer="7" in="14"/>
  <entry out="187" producer="8" in="47"/>
  <entry out="271" producer="9" in="133"/>
  <entry out="149" producer="10" in="10"/>
  <entry out="65" producer="11" in="1"/>
  <entry out="138" producer="13" in="0"/>
  <entry out="160" producer="14" in="42"/>
  <entry out="126" producer="15" in="44"/>
  <entry out="260" producer="16" in="53"/>
  <entry out="218" producer="17" in="182"/>
  <entry out="206" producer="19" in="0"/>
  <entry out="169" producer="20" in="54"/>
  <entry out="58" producer="21" in="11"/>
  <entry out="48" producer="22" in="0"/>
  <entry out="249" producer="23" in="0"/>
  <entry out="290" producer="24" in="0"/>
  <entry out="262" producer="26" in="0"/>
  <entry out="356" producer="27" in="0"/>
  <entry out="222" producer="28" in="0"/>
  <entry out="172" producer="29" in="0"/>
  <entry out="31" producer="30" in="0"/>
  <entry out="21" producer="32" in="0"/>
  <entry out="20" producer="33" in="0"/>
  <entry out="219" producer="35" in="0"/>
  <entry out="38" producer="36" in="9"/>
  <entry out="31" producer="37" in="2"/>
  <entry out="29" producer="38" in="0"/>
  <entry out="29" producer="39" in="0"/>
  <entry out="26" producer="40" in="0"/>
  <entry out="170" producer="41" in="0"/>
  <entry out="140" producer="42" in="0"/>
 </playlist>
 <playlist id="playlist3">
  <property name="kdenlive:track_name">Video 2</property>
 </playlist>
 <tractor id="maintractor" title="Anonymous Submission" global_feed="1" out="4976" in="0">
  <track producer="black_track"/>
  <track producer="playlist1" hide="video"/>
  <track producer="playlist2"/>
  <track producer="playlist3"/>
  <transition id="transition0">
   <property name="a_track">0</property>
   <property name="b_track">1</property>
   <property name="mlt_service">mix</property>
   <property name="always_active">1</property>
   <property name="combine">1</property>
   <property name="internal_added">237</property>
  </transition>
  <transition id="transition1">
   <property name="a_track">0</property>
   <property name="b_track">2</property>
   <property name="mlt_service">mix</property>
   <property name="always_active">1</property>
   <property name="combine">1</property>
   <property name="internal_added">237</property>
  </transition>
  <transition id="transition2">
   <property name="a_track">0</property>
   <property name="b_track">2</property>
   <property name="compositing">0</property>
   <property name="distort">0</property>
   <property name="mlt_service">qtblend</property>
   <property name="internal_added">237</property>
  </transition>
  <transition id="transition3">
   <property name="a_track">0</property>
   <property name="b_track">3</property>
   <property name="mlt_service">mix</property>
   <property name="always_active">1</property>
   <property name="combine">1</property>
   <property name="internal_added">237</property>
  </transition>
  <transition id="transition4">
   <property name="a_track">0</property>
   <property name="b_track">3</property>
   <property name="compositing">0</property>
   <property name="distort">0</property>
   <property name="mlt_service">qtblend</property>
   <property name="internal_added">237</property>
  </transition>
 </tractor>
</mlt>
